<?xml version="1.0" encoding="UTF-8" standalone="no"?>
<svg
   id="Layer_1"
   data-name="Layer 1"
   viewBox="0 0 500 500"
   version="1.1"
   sodipodi:docname="elixir_spain_logo.svg"
   inkscape:version="1.2.1 (9c6d41e4, 2022-07-14)"
   xmlns:inkscape="http://www.inkscape.org/namespaces/inkscape"
   xmlns:sodipodi="http://sodipodi.sourceforge.net/DTD/sodipodi-0.dtd"
   xmlns="http://www.w3.org/2000/svg"
   xmlns:svg="http://www.w3.org/2000/svg">
  <sodipodi:namedview
     id="namedview165"
     pagecolor="#ffffff"
     bordercolor="#111111"
     borderopacity="1"
     inkscape:showpageshadow="0"
     inkscape:pageopacity="0"
     inkscape:pagecheckerboard="1"
     inkscape:deskcolor="#d1d1d1"
     showgrid="false"
     inkscape:zoom="0.472"
     inkscape:cx="185.38136"
     inkscape:cy="250"
     inkscape:window-width="1920"
     inkscape:window-height="1080"
     inkscape:window-x="0"
     inkscape:window-y="0"
     inkscape:window-maximized="0"
     inkscape:current-layer="Layer_1" />
  <defs
     id="defs134">
    <style
       id="style132">
      .cls-1 {
        fill: #4e4848;
      }

      .cls-2 {
        fill: #ff7600;
      }
    </style>
  </defs>
  <g
     id="g150"
     transform="matrix(1.613793,0,0,1.613793,-151.28723,-143.7365)">
    <path
       class="cls-1"
       d="m 189.75,271.95 c 0.63,-1.38 1.16,-2.86 1.8,-4.66 0.63,-1.69 1.27,-3.81 1.8,-6.24 l 6.46,-27.95 c 0.53,-2.86 0.95,-4.98 1.06,-6.24 0.21,-0.95 0.21,-2.01 0.21,-3.39 v -1.27 h 14.61 l -8.79,38.85 c -0.64,2.75 -1.05,4.87 -1.27,6.35 -0.32,1.59 -0.32,3.07 -0.32,4.55 z"
       id="path136" />
    <path
       class="cls-2"
       d="m 383.15,135.9 c -9.39,0 -17,7.61 -17,17 0,2.94 0.75,5.7 2.06,8.12 -1.69,0.84 -5.63,2.82 -11.15,5.69 -2.05,-4.21 -6.37,-7.12 -11.37,-7.12 -6.99,0 -12.66,5.67 -12.66,12.66 0,2.33 0.64,4.51 1.75,6.39 -2.84,1.57 -5.78,3.21 -8.81,4.92 -1.78,-2.7 -4.83,-4.49 -8.31,-4.49 -5.49,0 -9.94,4.45 -9.94,9.94 0,1.63 0.4,3.16 1.09,4.51 -3.13,1.87 -6.28,3.78 -9.43,5.72 -1.26,-1.07 -2.9,-1.72 -4.69,-1.72 -4.01,0 -7.26,3.25 -7.26,7.26 0,0.64 0.09,1.27 0.25,1.86 -12.71,8.26 -24.87,16.91 -34.72,25.32 -11.48,-25.68 -28.42,-53.87 -51.99,-76.82 -0.02,-0.02 -0.04,-0.04 -0.07,-0.07 -2.76,-2.72 -5.04,-1.52 -1.87,1.87 0.04,0.04 0.08,0.09 0.12,0.13 20,21.52 35.72,52.68 46.43,81.08 -40.63,34.69 -85.41,101.91 -36.33,123.04 7.15,3.08 10.4,-2.8 7.33,-4.61 -0.55,-0.33 -22.42,-12.14 -8.52,-48.45 h 34.98 c 1.87,0 3.39,-1.52 3.39,-3.39 0,-1.87 -1.52,-3.39 -3.39,-3.39 h -32.08 c 1.88,-4.01 4.17,-8.29 6.92,-12.85 h 25.16 c 1.87,0 3.39,-1.52 3.39,-3.39 0,-1.87 -1.52,-3.39 -3.39,-3.39 h -20.83 c 2.6,-3.89 5.51,-7.95 8.79,-12.21 h 12.05 c 1.87,0 3.39,-1.52 3.39,-3.39 0,-1.87 -1.52,-3.39 -3.39,-3.39 h -6.66 c 3.8,-4.64 7.99,-9.49 12.63,-14.57 0.04,-0.04 0.08,-0.09 0.12,-0.13 9.23,26.71 13.68,49.49 12.7,57.09 -0.53,4.14 -3.2,5.86 -4.27,6.37 -1.72,0.81 -2.42,3.19 0.27,3.98 8.6,2.53 13.89,-6 14.84,-12.85 0.96,-6.91 -3.74,-32.19 -16.15,-62.34 10.37,-10.32 22.34,-20.17 34.54,-29.2 1.07,0.62 2.3,0.97 3.62,0.97 4.01,0 7.26,-3.25 7.26,-7.26 0,-0.49 -0.05,-0.96 -0.14,-1.43 3.24,-2.26 6.47,-4.46 9.66,-6.58 1.7,1.35 3.85,2.17 6.19,2.17 5.49,0 9.94,-4.45 9.94,-9.94 0,-0.83 -0.11,-1.62 -0.3,-2.39 3.18,-1.98 6.27,-3.86 9.24,-5.64 2.3,2.41 5.54,3.92 9.14,3.92 6.99,0 12.66,-5.67 12.66,-12.66 0,-1.23 -0.18,-2.42 -0.51,-3.54 5.4,-3.01 9.34,-5.13 11.27,-6.23 3.06,4.49 8.21,7.43 14.05,7.43 9.39,0 17,-7.61 17,-17 0,-9.39 -7.61,-17 -17,-17 z"
       id="path138" />
    <path
       class="cls-1"
       d="m 153.31,271.95 h -43.3 c -4.34,0 -7.3,-0.95 -8.89,-2.96 -0.84,-1.16 -1.27,-2.75 -1.27,-4.76 0,-1.48 0.21,-3.28 0.74,-5.4 l 5.4,-23.5 c 1.16,-4.76 2.85,-8.15 5.18,-10.17 2.43,-2.01 5.72,-2.96 10.16,-2.96 h 31.97 c 4.55,0 7.52,0.95 9,2.96 0.95,1.17 1.38,2.76 1.38,4.87 0,1.59 -0.22,3.28 -0.74,5.29 l -3.49,15.57 h -43.51 l -2.33,10.16 c -0.21,1.05 -0.31,1.91 -0.31,2.44 0,0.53 0,0.95 0.21,1.16 0.31,0.64 1.27,0.96 2.75,0.96 h 31.75 c 3.07,0 5.93,-0.32 8.26,-0.84 l -2.96,7.19 z m -3.38,-38.85 c 0.32,-0.95 0.42,-1.91 0.42,-2.54 0,-0.42 -0.11,-0.74 -0.21,-1.06 -0.43,-0.63 -1.48,-0.95 -2.96,-0.95 h -22.45 c -1.48,0 -2.54,0.32 -3.18,0.95 -0.74,0.64 -1.27,1.8 -1.48,3.6 l -2.65,11.43 h 29.85 l 2.65,-11.43 z"
       id="path140" />
    <path
       class="cls-1"
       d="m 164.11,271.95 c 0.67,-1.54 1.23,-3.2 1.91,-5.22 0.68,-1.9 1.35,-4.27 1.91,-7.01 l 11.12,-51.5 c 0.67,-3.21 1.12,-5.58 1.34,-7 0.11,-1.31 0.23,-3.09 0.23,-5.22 h 15.5 l -13.81,63.73 c -0.67,3.09 -1.12,5.46 -1.35,7.12 -0.34,1.78 -0.34,3.44 -0.34,5.1 z"
       id="path142" />
    <path
       class="cls-1"
       d="m 342.72,230.56 c -1.59,-0.11 -3.18,-0.21 -4.98,-0.21 h -7.09 c -1.37,0 -2.54,0.32 -3.17,0.84 -0.85,0.64 -1.38,1.69 -1.8,3.28 l -5.93,26.57 c -1.06,4.13 -1.48,7.31 -1.48,9.74 v 1.16 h -15.46 c 0.63,-1.59 1.27,-3.07 1.69,-4.55 0.42,-1.37 0.96,-3.49 1.7,-6.35 l 6.35,-27.95 c 0.74,-2.75 1.06,-4.87 1.38,-6.46 0.21,-1.49 0.21,-2.96 0.21,-4.45 h 13.02 l -0.53,5.08 c 0.85,-1.69 1.91,-2.96 3.28,-3.81 1.38,-0.85 3.18,-1.27 5.61,-1.27 h 12.71 l 3.07,5.5 c -0.63,0.53 -1.16,1.17 -1.8,2.02 -0.74,0.95 -1.27,1.38 -1.59,1.38 -1.9,-0.21 -3.61,-0.42 -5.19,-0.53 z"
       id="path144" />
    <path
       class="cls-1"
       d="m 274.22,271.95 c 0.63,-1.38 1.16,-2.86 1.79,-4.66 0.64,-1.69 1.27,-3.81 1.8,-6.24 l 6.46,-27.95 c 0.53,-2.86 0.95,-4.98 1.05,-6.24 0.22,-0.95 0.22,-2.01 0.22,-3.39 v -1.27 h 14.61 l -8.78,38.85 c -0.64,2.75 -1.06,4.87 -1.27,6.35 -0.32,1.59 -0.32,3.07 -0.32,4.55 z"
       id="path146" />
    <path
       class="cls-1"
       d="m 218.14,204.79 c 0,3.96 -3.21,7.16 -7.16,7.16 -3.95,0 -7.17,-3.21 -7.17,-7.16 0,-3.95 3.21,-7.17 7.17,-7.17 3.96,0 7.16,3.21 7.16,7.17 z"
       id="path148" />
  </g>
  <g
     id="g162"
     transform="matrix(1.613793,0,0,1.613793,-151.28723,-143.7365)">
    <path
       class="cls-1"
       d="m 266.14,342.89 c -1.11,-0.54 -1.93,-0.87 -3.88,-0.87 h -9.39 c -1.57,0 -2,0.21 -2.23,1.16 l -0.37,1.49 c -0.25,0.99 0.08,1.16 1.66,1.16 h 7.15 c 4.3,0 6.25,1.49 5.29,5.34 l -1.61,6.45 c -1.04,4.18 -3.1,6.49 -7.94,6.49 h -18.2 l 0.47,-5.38 c 0.87,0.5 1.74,0.99 3.72,0.99 h 9.76 c 1.57,0 1.94,-0.17 2.19,-1.16 l 0.45,-1.82 c 0.24,-0.95 -0.04,-1.16 -1.61,-1.16 h -8.23 c -4.01,0 -5.25,-1.32 -4.15,-5.75 l 1.47,-5.91 c 1.03,-4.14 3.59,-6.29 7.15,-6.29 h 18.74 l -0.44,5.25 z"
       id="path152" />
    <path
       class="cls-1"
       d="m 276.43,359.55 c -0.63,2.52 -0.54,3.52 -0.31,4.55 h -11.75 c 0.75,-1.03 1.33,-2.03 1.96,-4.55 l 4.32,-17.37 c 0.63,-2.52 0.54,-3.52 0.06,-4.55 h 21.67 c 3.93,0 6.43,1.08 5.09,6.45 l -1.03,4.14 c -1.34,5.38 -4.38,6.45 -8.31,6.45 h -10.5 l -1.21,4.88 z m 2.3,-9.26 h 5.29 c 1.44,0.04 1.92,-0.41 2.39,-2.27 l 0.93,-3.72 c 0.46,-1.86 0.2,-2.32 -1.25,-2.28 h -5.29 l -2.06,8.27 z"
       id="path154" />
    <path
       class="cls-1"
       d="m 302.95,356.99 -2.68,3.64 c -0.37,0.5 -0.63,1.03 -0.76,1.57 -0.23,0.91 -0.21,0.99 0.11,1.9 h -7.49 c 2.08,-2.03 2.76,-2.77 4.21,-4.8 l 14.66,-20.18 -0.79,-1.49 h 11.95 l 3.75,22.83 c 0.24,1.36 0.75,2.65 1.41,3.64 h -13.28 c 0.74,-0.99 0.87,-1.16 1.01,-1.74 0.15,-0.62 0.23,-1.41 0.12,-1.99 l -0.6,-3.39 h -11.62 z m 10.98,-4.39 -1.54,-8.93 -6.28,8.93 z"
       id="path156" />
    <path
       class="cls-1"
       d="m 328.72,364.1 c 0.75,-1.03 1.33,-2.03 1.96,-4.55 L 335,342.18 c 0.63,-2.52 0.54,-3.52 0.31,-4.55 h 11.75 c -0.75,1.03 -1.33,2.03 -1.96,4.55 l -4.32,17.37 c -0.63,2.52 -0.54,3.52 -0.31,4.55 z"
       id="path158" />
    <path
       class="cls-1"
       d="m 354.81,342.18 h -0.08 l -4.27,17.16 c -0.74,2.98 -0.75,3.52 -0.19,4.76 h -6.37 c 1.18,-1.24 1.44,-1.78 2.18,-4.76 l 4.22,-16.96 c 0.74,-2.98 0.75,-3.52 0.19,-4.76 h 14.19 l 5.38,21.59 h 0.12 l 4.19,-16.83 c 0.74,-2.98 0.75,-3.52 0.19,-4.76 h 6.37 c -1.18,1.24 -1.44,1.78 -2.18,4.76 l -5.4,21.71 h -13.07 l -5.46,-21.92 z"
       id="path160" />
  </g>
</svg>
